<svg width="120" height="98" viewBox="0 0 120 98" fill="none" xmlns="http://www.w3.org/2000/svg">
<path d="M89.4107 22.5548C92.8636 20.3958 95.1737 16.5705 95.1737 12.2067C95.1737 5.47621 89.6975 0 82.9671 0C76.2366 0 70.7604 5.47621 70.7604 12.2067C70.7604 16.5629 73.0614 20.3821 76.5052 22.5426C72.596 24.0212 69.259 26.8211 67.1213 30.5121C65.9891 29.7598 64.7624 29.1449 63.4715 28.6566C66.9245 26.4991 69.2346 22.6739 69.2346 18.31C69.2346 11.5795 63.7584 6.10333 57.0279 6.10333C50.2975 6.10333 44.8213 11.5795 44.8213 18.31C44.8213 22.6739 47.1314 26.4991 50.5843 28.6582C49.2935 29.1449 48.0667 29.7613 46.9346 30.5136C44.7969 26.8226 41.4614 24.0227 37.5522 22.5442C40.9945 20.3836 43.2954 16.5629 43.2954 12.2067C43.2954 5.47621 37.8192 0 31.0888 0C24.3583 0 18.8821 5.47621 18.8821 12.2067C18.8821 16.5705 21.1922 20.3958 24.6452 22.5548C17.7225 25.1701 12.7788 31.8456 12.7788 39.6716V51.8783C12.7788 55.2443 15.5162 57.9816 18.8821 57.9816H20.408V82.3949C20.408 85.7609 23.1453 88.4982 26.5113 88.4982C28.3438 88.4982 29.9688 87.6712 31.0888 86.3895C32.2087 87.6712 33.8338 88.4982 35.6663 88.4982C39.0323 88.4982 41.7696 85.7609 41.7696 82.3949V63.2366C42.6714 63.7614 43.7044 64.0849 44.8213 64.0849H46.3471V88.4982C46.3471 91.8642 49.0844 94.6015 52.4504 94.6015C54.283 94.6015 55.908 93.7746 57.0279 92.4929C58.1479 93.7746 59.7729 94.6015 61.6054 94.6015C64.9714 94.6015 67.7087 91.8642 67.7087 88.4982V64.0849H69.2346C70.3515 64.0849 71.3845 63.7614 72.2862 63.2366V82.3949C72.2862 85.7609 75.0236 88.4982 78.3896 88.4982C80.2221 88.4982 81.8471 87.6712 82.9671 86.3895C84.087 87.6712 85.712 88.4982 87.5446 88.4982C90.9105 88.4982 93.6479 85.7609 93.6479 82.3949V57.9816H95.1737C98.5397 57.9816 101.277 55.2443 101.277 51.8783V39.6716C101.277 31.8456 96.3333 25.1701 89.4107 22.5548ZM73.8121 12.2067C73.8121 7.15768 77.9181 3.05166 82.9671 3.05166C88.016 3.05166 92.1221 7.15768 92.1221 12.2067C92.1221 17.2556 88.016 21.3616 82.9671 21.3616C77.9181 21.3616 73.8121 17.2556 73.8121 12.2067ZM47.8729 18.31C47.8729 13.261 51.979 9.15499 57.0279 9.15499C62.0769 9.15499 66.1829 13.261 66.1829 18.31C66.1829 23.359 62.0769 27.465 57.0279 27.465C51.979 27.465 47.8729 23.359 47.8729 18.31ZM21.9338 12.2067C21.9338 7.15768 26.0398 3.05166 31.0888 3.05166C36.1378 3.05166 40.2438 7.15768 40.2438 12.2067C40.2438 17.2556 36.1378 21.3616 31.0888 21.3616C26.0398 21.3616 21.9338 17.2556 21.9338 12.2067ZM38.7179 82.3949C38.7179 84.0779 37.3493 85.4466 35.6663 85.4466C33.9833 85.4466 32.6146 84.0779 32.6146 82.3949V50.3524H29.563V82.3949C29.563 84.0779 28.1943 85.4466 26.5113 85.4466C24.8283 85.4466 23.4596 84.0779 23.4596 82.3949V33.5683H20.408V54.9299H18.8821C17.1991 54.9299 15.8305 53.5613 15.8305 51.8783V39.6716C15.8305 31.2582 22.6754 24.4133 31.0888 24.4133C36.7206 24.4133 41.8474 27.5535 44.4947 32.4636C40.9472 35.8036 38.7179 40.5291 38.7179 45.7749V50.4348V57.9816V82.3949ZM69.2346 61.0333H67.7087V39.6716H64.6571V88.4982C64.6571 90.1812 63.2884 91.5499 61.6054 91.5499C59.9224 91.5499 58.5538 90.1812 58.5538 88.4982V56.4558H55.5021V88.4982C55.5021 90.1812 54.1334 91.5499 52.4504 91.5499C50.7674 91.5499 49.3988 90.1812 49.3988 88.4982V39.6716H46.3471V61.0333H44.8213C43.1383 61.0333 41.7696 59.6646 41.7696 57.9816V50.4348V45.7749C41.7696 37.3615 48.6145 30.5166 57.0279 30.5166C65.4414 30.5166 72.2862 37.3615 72.2862 45.7749V50.3524V57.9816C72.2862 59.6646 70.9176 61.0333 69.2346 61.0333ZM98.2254 51.8783C98.2254 53.5613 96.8567 54.9299 95.1737 54.9299H93.6479V35.0941H90.5962V82.3949C90.5962 84.0779 89.2275 85.4466 87.5446 85.4466C85.8616 85.4466 84.4929 84.0779 84.4929 82.3949V50.3524H81.4412V82.3949C81.4412 84.0779 80.0726 85.4466 78.3896 85.4466C76.7066 85.4466 75.3379 84.0779 75.3379 82.3949V57.9816V50.3524V45.7749C75.3379 40.5291 73.1087 35.8036 69.5611 32.4636C72.2069 27.5535 77.3367 24.4133 82.9671 24.4133C91.3805 24.4133 98.2254 31.2582 98.2254 39.6716V51.8783Z" fill="#8CC63F"/>
<rect y="33.8766" width="119.778" height="64.1235" fill="white"/>
</svg>
