<svg width="81" height="81" viewBox="0 0 81 81" fill="none" xmlns="http://www.w3.org/2000/svg">
<circle cx="40.5" cy="40.5" r="40" stroke="white"/>
<path d="M38.8022 12.7157C29.6891 13.5848 22.8462 21.687 22.8462 30.9958V53.6966C22.8462 62.8028 28.1352 67.5201 34.1024 67.5201C40.309 67.5201 45.3585 62.4706 45.3585 56.2639C45.3585 51.6297 47.5489 47.2012 51.2176 44.4178C55.509 41.162 58.2227 36.0311 58.2227 30.3212C58.2227 20.1826 49.5472 11.6907 38.8022 12.7157ZM49.2737 41.8556C44.8084 45.2434 42.1425 50.6296 42.1425 56.2638C42.1425 60.6972 38.5357 64.304 34.1024 64.304C29.2181 64.304 26.0622 60.1403 26.0622 53.6965V30.9958C26.0622 23.2381 31.7924 16.6149 39.1074 15.9172C47.9017 15.0785 55.0067 22.0166 55.0067 30.3212C55.0067 34.8874 52.9171 39.0916 49.2737 41.8556Z" fill="white"/>
<path d="M39.4125 19.1178C35.3873 19.5022 31.8985 22.2473 30.2459 26.1601C28.4364 30.4443 29.145 35.2308 32.1415 38.9643C32.6123 39.5507 32.6128 40.3872 32.1415 40.9742C29.4066 44.3819 28.4529 49.0049 29.8737 51.9669C30.6933 53.6758 32.2345 54.6558 34.1021 54.6558C36.7621 54.6558 38.9262 52.4918 38.9262 49.8318C38.9262 48.9437 38.2062 48.2237 37.3182 48.2237C36.4301 48.2237 35.7102 48.9437 35.7102 49.8318C35.7102 50.7184 34.9888 51.4398 34.1021 51.4398C33.4697 51.4398 33.0598 51.1734 32.7733 50.5761C31.9983 48.9604 32.4883 45.6802 34.6496 42.9873C36.0579 41.2326 36.0675 38.7178 34.6496 36.9512C32.4052 34.1548 31.8665 30.5885 33.2085 27.4113C33.471 26.7895 33.7938 26.2112 34.1666 25.6835C37.7488 24.802 41.2975 27.1129 42.0136 30.641C42.1897 31.509 43.0365 32.0741 43.9095 31.8969C44.7797 31.7203 45.3421 30.8715 45.1654 30.0012C44.4306 26.3812 41.6861 23.5652 38.2439 22.6222C43.1631 21.0548 48.5745 24.8232 48.5745 30.3211C48.5745 32.8566 47.4119 35.1932 45.3849 36.7317C44.6775 37.2687 44.5393 38.2774 45.0763 38.9848C45.6132 39.6921 46.6218 39.8303 47.3294 39.2934C50.1645 37.1415 51.7905 33.8712 51.7905 30.3211C51.7904 23.8881 46.2994 18.4854 39.4125 19.1178Z" fill="white"/>
</svg>
