<svg width="16" height="14" viewBox="0 0 16 14" fill="none" xmlns="http://www.w3.org/2000/svg">
<path d="M10.9221 0C9.87278 0 8.84954 0.337408 8 0.94709C7.15036 0.337408 6.12722 0 5.07791 0C2.27792 0 2.6607e-08 2.32887 2.6607e-08 5.19139C-0.000211038 6.86214 1.25531 8.75981 3.83801 10.9927C5.61285 12.527 7.36184 13.641 7.4354 13.6876C7.60773 13.7969 7.80381 13.8516 7.99989 13.8516C8.19597 13.8516 8.39205 13.7969 8.56439 13.6876C8.63794 13.641 10.3869 12.5269 12.1618 10.9927C14.7446 8.75981 16 6.86225 16 5.19139C16 2.32887 13.7221 0 10.9221 0ZM7.99968 11.5311C5.38511 9.76834 2.11054 6.87208 2.11054 5.19139C2.11044 3.49494 3.44163 2.11475 5.0778 2.11475C5.89621 2.11475 6.65858 2.45311 7.22434 3.06765C7.42421 3.28463 7.70535 3.40802 8 3.40802C8.29465 3.40802 8.57579 3.28463 8.77566 3.06765C9.34142 2.45311 10.1038 2.11475 10.9222 2.11475C12.5584 2.11475 13.8895 3.49494 13.8895 5.19139C13.8895 6.86881 10.6143 9.76654 7.99968 11.5311Z" fill="white"/>
</svg>
