<svg width="79" height="81" viewBox="0 0 79 81" fill="none" xmlns="http://www.w3.org/2000/svg">
<path d="M78.5 40.5C78.5 62.6032 61.0274 80.5 39.5 80.5C17.9726 80.5 0.5 62.6032 0.5 40.5C0.5 18.3968 17.9726 0.5 39.5 0.5C61.0274 0.5 78.5 18.3968 78.5 40.5Z" stroke="white"/>
<path d="M39.3358 32.8438C37.6399 32.8438 36.2649 34.2186 36.2649 35.9147V61.8196C36.2649 63.5154 37.6398 64.8905 39.3358 64.8905C41.0319 64.8905 42.4068 63.5156 42.4068 61.8196V35.9145C42.4066 34.2184 41.0317 32.8438 39.3358 32.8438Z" fill="white"/>
<path d="M39.3365 17.4315C35.95 17.4315 33.1948 20.1867 33.1948 23.5732C33.1948 26.9597 35.95 29.7149 39.3365 29.7149C42.723 29.7149 45.4782 26.9597 45.4782 23.5732C45.4782 20.1867 42.723 17.4315 39.3365 17.4315Z" fill="white"/>
</svg>
