<svg width="80" height="80" viewBox="0 0 80 80" fill="none" xmlns="http://www.w3.org/2000/svg">
<circle cx="40" cy="40" r="39.5" stroke="white"/>
<rect x="14" y="14" width="51" height="52" rx="3" fill="#8CC63F"/>
<path d="M27.8028 63.2426C27.6176 63.0527 27.3606 62.945 27.0986 62.945C26.8367 62.945 26.5797 63.0527 26.3944 63.2426C26.209 63.4315 26.1025 63.6925 26.1025 63.9606C26.1025 64.2277 26.2091 64.4898 26.3944 64.6787C26.5797 64.8676 26.8367 64.9763 27.0986 64.9763C27.3606 64.9763 27.6176 64.8676 27.8028 64.6787C27.9881 64.4888 28.0947 64.2277 28.0947 63.9606C28.0947 63.6925 27.988 63.4315 27.8028 63.2426Z" fill="white"/>
<path d="M18.9477 51.2845C18.5738 50.8729 17.9435 50.8486 17.54 51.2294L17.5314 51.2376C17.1278 51.6187 17.1036 52.2613 17.4774 52.6729C17.6738 52.889 17.9407 52.9984 18.2085 52.9984C18.4507 52.9984 18.6935 52.9089 18.8851 52.7279L18.8937 52.7198C19.2973 52.3386 19.3215 51.696 18.9477 51.2845Z" fill="white"/>
<path d="M61.5521 49.6392C60.3804 47.7637 58.0267 47.1007 56.0768 48.0969L45.9884 53.2515C45.4965 53.5028 45.2976 54.113 45.5441 54.6144C45.7907 55.1158 46.3887 55.3187 46.881 55.0674L56.9694 49.9128C58.0028 49.3846 59.2506 49.7362 59.8718 50.7304C60.2098 51.2715 60.3096 51.9116 60.1526 52.5328C59.9957 53.1541 59.6052 53.6654 59.0529 53.9728L45.4908 61.5202C43.8164 62.452 41.9232 62.9445 40.0156 62.9445H31.179C30.6289 62.9445 30.1829 63.3992 30.1829 63.9601C30.1829 64.521 30.6289 64.9757 31.179 64.9757H40.0156C42.2556 64.9757 44.479 64.3973 46.4453 63.3032L60.0074 55.7558C61.0341 55.1844 61.7901 54.1943 62.0819 53.0394C62.3735 51.8844 62.1804 50.6452 61.5521 49.6392Z" fill="white"/>
<path d="M42.1249 53.3768L37.962 50.0142C35.8051 48.272 33.1018 47.3125 30.3501 47.3125H23.2139C23.2139 46.7516 22.7678 46.2969 22.2178 46.2969H14.9961C14.4461 46.2969 14 46.7516 14 47.3125C14 47.8734 14.4461 48.3281 14.9961 48.3281H21.2217V63.9688H14.9961C14.4461 63.9688 14 64.4234 14 64.9844C14 65.5453 14.4461 66 14.9961 66H22.2178C22.7678 66 23.2139 65.5453 23.2139 64.9844V49.3438H30.3501C32.6546 49.3438 34.9186 50.1473 36.7249 51.6065L40.8878 54.9691C41.3779 55.365 41.6179 55.9782 41.5298 56.6094C41.4417 57.2406 41.0434 57.7611 40.4645 58.002C39.9308 58.224 39.3252 58.1624 38.8449 57.8371L33.5266 54.2359C33.0685 53.9255 32.45 54.0529 32.1458 54.5201C31.8414 54.9874 31.9662 55.6177 32.4245 55.9279L37.7428 59.5291C38.3642 59.9499 39.0829 60.1649 39.8071 60.1649C40.2836 60.1649 40.7626 60.0717 41.2171 59.8827C42.459 59.3661 43.3132 58.2495 43.5022 56.8954C43.6911 55.5414 43.1763 54.2261 42.1249 53.3768Z" fill="white"/>
<path d="M64.004 31.6719H57.7784V16.0312H64.004C64.5541 16.0312 65.0001 15.5766 65.0001 15.0156C65.0001 14.4547 64.5541 14 64.004 14H56.7823C56.2323 14 55.7862 14.4547 55.7862 15.0156V30.6562H48.65C46.3455 30.6562 44.0815 29.8527 42.2752 28.3935L38.1124 25.0309C37.6222 24.635 37.3822 24.0218 37.4703 23.3906C37.5584 22.7594 37.9567 22.2389 38.5356 21.998C39.0693 21.776 39.6749 21.8377 40.1552 22.1629L45.4735 25.7641C45.9316 26.0745 46.5502 25.9471 46.8543 25.4799C47.1587 25.0126 47.0339 24.3823 46.5756 24.0721L41.2573 20.4709C40.227 19.7732 38.9284 19.641 37.783 20.1173C36.5411 20.6339 35.6869 21.7505 35.4979 23.1046C35.309 24.4586 35.8238 25.7739 36.8752 26.6232L41.0381 29.9858C43.195 31.728 45.8983 32.6875 48.65 32.6875H55.7862C55.7862 33.2484 56.2323 33.7031 56.7823 33.7031H64.004C64.5541 33.7031 65.0001 33.2484 65.0001 32.6875C65.0001 32.1266 64.5541 31.6719 64.004 31.6719Z" fill="white"/>
<path d="M52.9541 15.3213C52.769 15.1324 52.512 15.0237 52.25 15.0237C51.988 15.0237 51.731 15.1324 51.5458 15.3213C51.3605 15.5102 51.2539 15.7723 51.2539 16.0394C51.2539 16.3075 51.3604 16.5685 51.5458 16.7584C51.731 16.9473 51.988 17.055 52.25 17.055C52.512 17.055 52.769 16.9473 52.9541 16.7584C53.1394 16.5685 53.2461 16.3065 53.2461 16.0394C53.2461 15.7723 53.1395 15.5102 52.9541 15.3213Z" fill="white"/>
<path d="M47.9668 15.0243H38.9844C36.7444 15.0243 34.5209 15.6027 32.5547 16.6968L18.9926 24.2441C17.9659 24.8155 17.2099 25.8057 16.9181 26.9605C16.6265 28.1155 16.8196 29.3548 17.4479 30.3607C18.2523 31.6485 19.6141 32.3646 21.0197 32.3646C21.6612 32.3646 22.3122 32.2154 22.9232 31.9032L33.0116 26.7486C33.5035 26.4972 33.7024 25.887 33.4559 25.3856C33.2093 24.8841 32.611 24.6813 32.119 24.9326L22.0306 30.0872C20.997 30.6153 19.7493 30.2638 19.1282 29.2697C18.7901 28.7285 18.6904 28.0885 18.8474 27.4672C19.0043 26.846 19.3948 26.3346 19.9471 26.0273L33.5092 18.4799C35.1836 17.548 37.0768 17.0555 38.9844 17.0555H47.9668C48.5168 17.0555 48.9629 16.6008 48.9629 16.0399C48.9629 15.479 48.5168 15.0243 47.9668 15.0243Z" fill="white"/>
<path d="M61.9593 26.888C61.5877 26.4742 60.9578 26.446 60.552 26.8248L60.5433 26.8329C60.1377 27.2117 60.1099 27.8541 60.4814 28.2678C60.678 28.4866 60.9467 28.5976 61.2164 28.5976C61.4566 28.5976 61.6976 28.5094 61.8888 28.331L61.8975 28.3228C62.3031 27.944 62.3309 27.3016 61.9593 26.888Z" fill="white"/>
<path d="M42.258 34.1053C41.2676 34.1053 40.3018 34.4294 39.5 35.015C38.698 34.4294 37.7323 34.1053 36.7419 34.1053C34.099 34.1053 31.949 36.3422 31.949 39.0917C31.9488 40.6965 33.1338 42.5192 35.5716 44.6639C37.2468 46.1377 38.8976 47.2077 38.9671 47.2524C39.1297 47.3575 39.3148 47.41 39.4999 47.41C39.6849 47.41 39.87 47.3575 40.0327 47.2524C40.1021 47.2077 41.7529 46.1376 43.4282 44.6639C45.866 42.5192 47.051 40.6966 47.051 39.0917C47.051 36.3422 44.9009 34.1053 42.258 34.1053ZM39.4997 45.1811C37.0318 43.4879 33.9411 40.706 33.9411 39.0917C33.941 37.4622 35.1974 36.1365 36.7418 36.1365C37.5142 36.1365 38.2338 36.4615 38.7678 37.0518C38.9565 37.2602 39.2219 37.3787 39.5 37.3787C39.7781 37.3787 40.0434 37.2602 40.2321 37.0518C40.7661 36.4615 41.4857 36.1365 42.2581 36.1365C43.8025 36.1365 45.0589 37.4622 45.0589 39.0917C45.0589 40.7029 41.9675 43.4862 39.4997 45.1811Z" fill="white"/>
</svg>
