<svg width="59" height="59" viewBox="0 0 59 59" fill="none" xmlns="http://www.w3.org/2000/svg">
<g clip-path="url(#clip0)">
<path d="M5.76172 33.0835C5.12568 33.0835 4.60938 33.5998 4.60938 34.2358C4.60938 34.8719 5.12568 35.3882 5.76172 35.3882C6.39776 35.3882 6.91407 34.8719 6.91407 34.2358C6.91407 33.5998 6.39776 33.0835 5.76172 33.0835Z" fill="#8CC63F"/>
<path d="M52.9638 37.0794L42.1002 40.8141C42.1484 40.5467 42.1754 40.274 42.1754 39.9971C42.1754 37.4557 40.1079 35.3877 37.566 35.3877H30.1037C29.9056 35.3877 29.7103 35.3369 29.5379 35.2397L23.4498 31.8155C22.2461 31.1371 20.8782 30.7784 19.494 30.7784H11.3249C10.8496 29.4374 9.56852 28.4741 8.06642 28.4741H1.15235C0.515855 28.4741 0 28.99 0 29.6265V50.3682C0 51.0047 0.515855 51.5206 1.15235 51.5206H8.06642C9.53431 51.5206 10.7929 50.5983 11.2925 49.3028C12.597 49.4648 14.1063 49.8506 15.0548 50.4196L21.0812 54.0355C23.3643 55.4057 25.9782 56.13 28.6412 56.13C30.7514 56.13 32.7959 55.687 34.7185 54.8138L56.2264 45.3434C58.6085 44.3769 59.7847 41.519 58.423 39.0001C57.4215 37.1464 55.0758 36.3218 52.9638 37.0794ZM9.21877 48.069C9.21607 48.7018 8.69976 49.2159 8.06642 49.2159H2.30469V30.7788H8.06642C8.70156 30.7788 9.21877 31.2956 9.21877 31.9312V48.069ZM55.3509 43.212C55.3387 43.2165 55.3266 43.2219 55.3144 43.2268C55.3144 43.2268 33.7745 52.7112 33.7705 52.713C32.1478 53.4512 30.4219 53.8253 28.6412 53.8253C26.3959 53.8253 24.1921 53.2149 22.2673 52.0594L16.2404 48.4435C14.9503 47.6697 13.103 47.1979 11.5235 47.0089V33.0835H19.494C20.4825 33.0835 21.4593 33.3392 22.3195 33.824L28.4076 37.2482C28.9234 37.5389 29.5104 37.6929 30.1037 37.6929H37.566C38.8368 37.6929 39.8707 38.7264 39.8707 39.9976C39.8707 41.2638 38.8363 42.3023 37.566 42.3023H25.8517C25.2152 42.3023 24.6994 42.8181 24.6994 43.4546C24.6994 44.0907 25.2152 44.6065 25.8517 44.6065H37.566C38.3218 44.6065 39.0659 44.4188 39.7262 44.0668C39.7262 44.0668 53.7322 39.2522 53.7376 39.2504C54.7702 38.8776 55.9378 39.2486 56.3956 40.0957C57.0821 41.3655 56.5145 42.7461 55.3509 43.212Z" fill="#8CC63F"/>
<path d="M33.5616 30.8315C33.7786 31.0193 34.0473 31.1129 34.3165 31.1129C34.5857 31.1129 34.8549 31.0193 35.0714 30.8315C44.4734 22.6832 50.2891 18.5595 50.2891 12.1514C50.2891 7.08197 46.7002 2.88086 41.6582 2.88086C38.347 2.88086 35.8114 4.78943 34.1783 7.65364C32.5488 4.79573 30.0159 2.88086 26.6998 2.88086C22.8399 2.88086 19.6128 5.38226 18.4785 9.25297C18.2994 9.86381 18.6496 10.5039 19.2604 10.6831C19.8712 10.8622 20.5113 10.512 20.69 9.90117C21.5295 7.03651 23.8882 5.18555 26.6998 5.18555C29.9871 5.18555 32.2932 8.10468 33.0678 10.8226C33.206 11.3218 33.6607 11.6675 34.1783 11.6675C34.6964 11.6675 35.1506 11.3218 35.2888 10.8226C35.3046 10.7663 36.9052 5.18555 41.6582 5.18555C45.2647 5.18555 47.9844 8.17985 47.9844 12.1514C47.9844 17.2775 42.9735 20.9731 34.3156 28.4382C29.0405 23.908 24.8502 20.7193 22.4685 17.5998C22.0823 17.0939 21.3594 16.9966 20.8534 17.3829C20.3475 17.7691 20.2507 18.492 20.6365 18.9984C23.3211 22.5144 27.853 25.8832 33.5616 30.8315Z" fill="#8CC63F"/>
<path d="M19.4746 13.0327C18.8386 13.0327 18.3223 13.549 18.3223 14.1851C18.3223 14.8211 18.8386 15.3374 19.4746 15.3374C20.1107 15.3374 20.627 14.8211 20.627 14.1851C20.627 13.549 20.1107 13.0327 19.4746 13.0327Z" fill="#8CC63F"/>
</g>
<defs>
<clipPath id="clip0">
<rect width="59" height="59" fill="white"/>
</clipPath>
</defs>
</svg>
